<svg xmlns="http://www.w3.org/2000/svg" width="379" height="371" viewBox="0 0 379 371"><path fill="#efa699" d="M206.07 232.97c67.68-73.02 67.79-147-1.07-219.68 53.97-22.67 107.84-7.05 140.58 38.57 32.65 45.51 30.64 105.99-5.02 150.15-32.57 40.33-87.82 53.63-134.49 30.96M163.68 359.97c-67.68-73.02-67.78-147 1.07-219.68-53.96-22.67-107.83-7.05-140.58 38.57-32.64 45.51-30.64 105.99 5.02 150.15 32.58 40.33 87.83 53.63 134.49 30.96"/><path fill="#f6cfc0" d="M231.38 163.4c-73.15-67.56-147.27-67.67-220.07 1.07C-11.4 110.59 4.25 56.82 49.94 24.13c45.6-32.59 106.18-30.58 150.42 5.01 40.4 32.52 53.73 87.67 31.02 134.26M367.38 204.07c-73.15 67.56-147.27 67.66-220.07-1.07-22.71 53.88-7.06 107.65 38.63 140.34 45.6 32.59 106.18 30.58 150.42-5.01 40.4-32.52 53.73-87.68 31.02-134.26"/></svg>